<svg width="31" height="31" viewBox="0 0 31 31" fill="none" xmlns="http://www.w3.org/2000/svg">
<rect width="31" height="31" rx="15.5" fill="#E8E8E8"/>
<path d="M22.7802 21.719C22.8499 21.7887 22.9052 21.8714 22.9429 21.9625C22.9806 22.0535 23 22.1511 23 22.2496C23 22.3482 22.9806 22.4457 22.9429 22.5368C22.9052 22.6278 22.8499 22.7105 22.7802 22.7802C22.7105 22.8499 22.6278 22.9052 22.5368 22.9429C22.4457 22.9806 22.3482 23 22.2496 23C22.1511 23 22.0535 22.9806 21.9625 22.9429C21.8714 22.9052 21.7887 22.8499 21.719 22.7802L15.5 16.5603L9.28097 22.7802C9.14025 22.9209 8.94939 23 8.75038 23C8.55136 23 8.3605 22.9209 8.21978 22.7802C8.07906 22.6395 8 22.4486 8 22.2496C8 22.0506 8.07906 21.8598 8.21978 21.719L14.4397 15.5L8.21978 9.28097C8.07906 9.14025 8 8.94939 8 8.75038C8 8.55136 8.07906 8.3605 8.21978 8.21978C8.3605 8.07906 8.55136 8 8.75038 8C8.94939 8 9.14025 8.07906 9.28097 8.21978L15.5 14.4397L21.719 8.21978C21.8598 8.07906 22.0506 8 22.2496 8C22.4486 8 22.6395 8.07906 22.7802 8.21978C22.9209 8.3605 23 8.55136 23 8.75038C23 8.94939 22.9209 9.14025 22.7802 9.28097L16.5603 15.5L22.7802 21.719Z" fill="#8F8F8F"/>
</svg>
