<svg width="25" height="25" viewBox="0 0 25 25" fill="none" xmlns="http://www.w3.org/2000/svg">
<path d="M19.0667 13.1077L13.8281 11.1719L11.8984 5.92922C11.7841 5.61877 11.5774 5.35085 11.3061 5.16159C11.0347 4.97234 10.7119 4.87087 10.3811 4.87087C10.0503 4.87087 9.72741 4.97234 9.45608 5.16159C9.18475 5.35085 8.978 5.61877 8.86373 5.92922L6.92185 11.1719L1.6792 13.1016C1.36875 13.2158 1.10083 13.4226 0.911573 13.6939C0.722321 13.9652 0.62085 14.2881 0.62085 14.6189C0.62085 14.9497 0.722321 15.2726 0.911573 15.5439C1.10083 15.8152 1.36875 16.022 1.6792 16.1362L6.92185 18.0781L8.85154 23.3208C8.96582 23.6312 9.17257 23.8992 9.44389 24.0884C9.71522 24.2777 10.0381 24.3791 10.3689 24.3791C10.6997 24.3791 11.0225 24.2777 11.2939 24.0884C11.5652 23.8992 11.772 23.6312 11.8862 23.3208L13.8281 18.0781L19.0708 16.1484C19.3812 16.0342 19.6491 15.8274 19.8384 15.5561C20.0276 15.2848 20.1291 14.9619 20.1291 14.6311C20.1291 14.3003 20.0276 13.9774 19.8384 13.7061C19.6491 13.4348 19.3812 13.228 19.0708 13.1137L19.0667 13.1077ZM12.914 16.6786C12.8038 16.7192 12.7036 16.7833 12.6205 16.8664C12.5374 16.9496 12.4733 17.0497 12.4326 17.16L10.375 22.7348L8.32139 17.1641C8.2808 17.0526 8.21631 16.9514 8.13245 16.8675C8.04858 16.7837 7.94737 16.7192 7.83592 16.6786L2.26521 14.625L7.83592 12.5714C7.94737 12.5308 8.04858 12.4663 8.13245 12.3825C8.21631 12.2986 8.2808 12.1974 8.32139 12.0859L10.375 6.51523L12.4286 12.0859C12.4692 12.1962 12.5333 12.2964 12.6164 12.3795C12.6995 12.4626 12.7997 12.5267 12.91 12.5673L18.4847 14.625L12.914 16.6786ZM13.625 4.0625C13.625 3.84701 13.7106 3.64035 13.863 3.48798C14.0153 3.3356 14.222 3.25 14.4375 3.25H16.0625V1.625C16.0625 1.40951 16.1481 1.20285 16.3005 1.05048C16.4528 0.898102 16.6595 0.8125 16.875 0.8125C17.0905 0.8125 17.2971 0.898102 17.4495 1.05048C17.6019 1.20285 17.6875 1.40951 17.6875 1.625V3.25H19.3125C19.528 3.25 19.7346 3.3356 19.887 3.48798C20.0394 3.64035 20.125 3.84701 20.125 4.0625C20.125 4.27799 20.0394 4.48465 19.887 4.63702C19.7346 4.7894 19.528 4.875 19.3125 4.875H17.6875V6.5C17.6875 6.71549 17.6019 6.92215 17.4495 7.07452C17.2971 7.2269 17.0905 7.3125 16.875 7.3125C16.6595 7.3125 16.4528 7.2269 16.3005 7.07452C16.1481 6.92215 16.0625 6.71549 16.0625 6.5V4.875H14.4375C14.222 4.875 14.0153 4.7894 13.863 4.63702C13.7106 4.48465 13.625 4.27799 13.625 4.0625ZM24.1875 8.9375C24.1875 9.15299 24.1019 9.35965 23.9495 9.51202C23.7971 9.6644 23.5905 9.75 23.375 9.75H22.5625V10.5625C22.5625 10.778 22.4769 10.9846 22.3245 11.137C22.1721 11.2894 21.9655 11.375 21.75 11.375C21.5345 11.375 21.3278 11.2894 21.1755 11.137C21.0231 10.9846 20.9375 10.778 20.9375 10.5625V9.75H20.125C19.9095 9.75 19.7028 9.6644 19.5505 9.51202C19.3981 9.35965 19.3125 9.15299 19.3125 8.9375C19.3125 8.72201 19.3981 8.51535 19.5505 8.36298C19.7028 8.2106 19.9095 8.125 20.125 8.125H20.9375V7.3125C20.9375 7.09701 21.0231 6.89035 21.1755 6.73798C21.3278 6.5856 21.5345 6.5 21.75 6.5C21.9655 6.5 22.1721 6.5856 22.3245 6.73798C22.4769 6.89035 22.5625 7.09701 22.5625 7.3125V8.125H23.375C23.5905 8.125 23.7971 8.2106 23.9495 8.36298C24.1019 8.51535 24.1875 8.72201 24.1875 8.9375Z" fill="#1C3B4F"/>
</svg>
