<svg width="20" height="14" viewBox="0 0 20 14" fill="none" xmlns="http://www.w3.org/2000/svg">
<path d="M0 1C0 0.801088 0.0790178 0.610322 0.21967 0.46967C0.360322 0.329018 0.551088 0.25 0.75 0.25H17.25C17.4489 0.25 17.6397 0.329018 17.7803 0.46967C17.921 0.610322 18 0.801088 18 1C18 1.19891 17.921 1.38968 17.7803 1.53033C17.6397 1.67098 17.4489 1.75 17.25 1.75H0.75C0.551088 1.75 0.360322 1.67098 0.21967 1.53033C0.0790178 1.38968 0 1.19891 0 1ZM0.75 7.75H6C6.19891 7.75 6.38968 7.67098 6.53033 7.53033C6.67098 7.38968 6.75 7.19891 6.75 7C6.75 6.80109 6.67098 6.61032 6.53033 6.46967C6.38968 6.32902 6.19891 6.25 6 6.25H0.75C0.551088 6.25 0.360322 6.32902 0.21967 6.46967C0.0790178 6.61032 0 6.80109 0 7C0 7.19891 0.0790178 7.38968 0.21967 7.53033C0.360322 7.67098 0.551088 7.75 0.75 7.75ZM7.5 12.25H0.75C0.551088 12.25 0.360322 12.329 0.21967 12.4697C0.0790178 12.6103 0 12.8011 0 13C0 13.1989 0.0790178 13.3897 0.21967 13.5303C0.360322 13.671 0.551088 13.75 0.75 13.75H7.5C7.69891 13.75 7.88968 13.671 8.03033 13.5303C8.17098 13.3897 8.25 13.1989 8.25 13C8.25 12.8011 8.17098 12.6103 8.03033 12.4697C7.88968 12.329 7.69891 12.25 7.5 12.25ZM19.2272 8.47937L17.1159 10.2222L17.7591 12.82C17.7943 12.9632 17.7866 13.1137 17.7367 13.2525C17.6869 13.3914 17.5973 13.5124 17.479 13.6006C17.3607 13.6887 17.2191 13.7401 17.0718 13.7481C16.9245 13.7562 16.7781 13.7206 16.6509 13.6459L14.25 12.2331L11.8491 13.6459C11.7219 13.7206 11.5755 13.7562 11.4282 13.7481C11.2809 13.7401 11.1393 13.6887 11.021 13.6006C10.9027 13.5124 10.8131 13.3914 10.7633 13.2525C10.7135 13.1137 10.7057 12.9632 10.7409 12.82L11.3831 10.2222L9.27281 8.47937C9.15773 8.3842 9.07369 8.25683 9.03144 8.11359C8.9892 7.97035 8.99068 7.81776 9.03569 7.67536C9.08071 7.53297 9.1672 7.40726 9.28411 7.31433C9.40101 7.2214 9.543 7.16548 9.69188 7.15375L12.4894 6.93719L13.5609 4.45281C13.6188 4.31808 13.715 4.20327 13.8374 4.1226C13.9599 4.04194 14.1034 3.99894 14.25 3.99894C14.3967 3.99894 14.5401 4.04194 14.6626 4.1226C14.785 4.20327 14.8812 4.31808 14.9391 4.45281L16.0106 6.93719L18.8081 7.15375C18.957 7.16548 19.099 7.2214 19.2159 7.31433C19.3328 7.40726 19.4193 7.53297 19.4643 7.67536C19.5093 7.81776 19.5108 7.97035 19.4686 8.11359C19.4263 8.25683 19.3423 8.3842 19.2272 8.47937ZM16.8394 8.50562L15.4434 8.39781C15.3073 8.38736 15.1765 8.33992 15.0653 8.26062C14.9542 8.18132 14.8667 8.07316 14.8125 7.94781L14.25 6.64281L13.6875 7.94781C13.6333 8.07316 13.5458 8.18132 13.4347 8.26062C13.3235 8.33992 13.1927 8.38736 13.0566 8.39781L11.6606 8.50562L12.7022 9.36625C12.8113 9.45614 12.8928 9.57504 12.9372 9.70923C12.9817 9.84342 12.9873 9.98744 12.9534 10.1247L12.6253 11.4484L13.8694 10.7162C13.9847 10.6483 14.1161 10.6125 14.25 10.6125C14.3839 10.6125 14.5153 10.6483 14.6306 10.7162L15.8747 11.4484L15.5466 10.1247C15.5127 9.98744 15.5183 9.84342 15.5628 9.70923C15.6072 9.57504 15.6887 9.45614 15.7978 9.36625L16.8394 8.50562Z" fill="#1C3B4F"/>
</svg>
